<svg id="Layer_1" data-name="Layer 1" xmlns="http://www.w3.org/2000/svg" viewBox="0 0 122.88 96.42"><defs><style>.cls-1{fill-rule:evenodd;}</style></defs><title>time-expiration</title><path class="cls-1" d="M61.8,84.86,86.45,41.41c3.12-4.93,8.09-5.06,11.28,0l24.21,42.91c2,4.07,1,9.54-5.58,9.43H67c-4.35.11-7.15-3.7-5.17-8.89ZM45.73,64.07V51.49a4.06,4.06,0,0,1-1.26-1.58l-8.6-4.28a1.59,1.59,0,0,1-.9,1.08,1.64,1.64,0,0,1-2.19-.79l-2-4.18a1.65,1.65,0,0,1,0-1.27v0h0v0h0a1.65,1.65,0,0,1,1.23-1l4.54-.84a1.64,1.64,0,0,1,1.92,1.33,1.62,1.62,0,0,1-.33,1.32L45.69,45a4.11,4.11,0,1,1,5,6.53V64.07a1.61,1.61,0,0,1,1.36.31,1.64,1.64,0,0,1,.3,2.32l-2.82,3.65a1.67,1.67,0,0,1-1.3.65h0a1.67,1.67,0,0,1-1.3-.65L44.07,66.7a1.64,1.64,0,0,1,.3-2.32,1.61,1.61,0,0,1,1.36-.31ZM16.57,45.5a2.71,2.71,0,0,1,0,5.42h-3a2.71,2.71,0,1,1,0-5.42ZM45.5,80.26a2.71,2.71,0,1,1,5.42,0v2.95a2.71,2.71,0,1,1-5.42,0V80.26Zm0-66.66a2.71,2.71,0,0,1,5.42,0v3a2.71,2.71,0,1,1-5.42,0v-3ZM26.79,19.82a2.7,2.7,0,0,1,4.68-2.69L33,19.7a2.7,2.7,0,1,1-4.68,2.69l-1.48-2.57Zm37.53-2.35A2.7,2.7,0,0,1,69,20.16l-1.48,2.57A2.7,2.7,0,1,1,62.84,20l1.48-2.57Zm-49,16.1A2.7,2.7,0,0,1,18,28.88l2.57,1.49a2.7,2.7,0,0,1-2.7,4.68l-2.56-1.48Zm63.19-4.69a2.7,2.7,0,1,1,2.69,4.69l-2.57,1.48a2.7,2.7,0,0,1-2.69-4.68l2.57-1.49ZM19.55,69.13a2.7,2.7,0,0,1-2.69-4.68L19.43,63a2.7,2.7,0,1,1,2.69,4.68l-2.57,1.48ZM32,79.56a2.7,2.7,0,0,1-4.68-2.69l1.48-2.57A2.7,2.7,0,1,1,33.45,77L32,79.56ZM48.21,0A48.26,48.26,0,0,1,92.94,30.19q-.42,0-.84,0a10.51,10.51,0,0,0-4,.82A43.41,43.41,0,1,0,48.21,91.61a44.39,44.39,0,0,0,5.44-.34,10.71,10.71,0,0,0,1.71,4.26l.23.33a48.56,48.56,0,0,1-7.38.56A48.21,48.21,0,1,1,48.21,0ZM89.7,81a3.32,3.32,0,0,1,3.51-.73,3.45,3.45,0,0,1,1.21.78,3.31,3.31,0,0,1,1,2.12,3.39,3.39,0,0,1,0,.84A3.33,3.33,0,0,1,92,86.72a3.52,3.52,0,0,1-1.36-.32A3.35,3.35,0,0,1,89,81.89,3,3,0,0,1,89.7,81Zm4.88-6.12c-.12,2.87-5,2.87-5.08,0C89,69.92,87.75,60.59,87.79,56c.11-3.72,8.49-3.62,8.49.08v.14l-1.7,18.64Z"/></svg>